<svg height='100px' width='100px'  fill="#2b79c2" xmlns="http://www.w3.org/2000/svg" viewBox="0 0 64 64" x="0px" y="0px"><g><path d="M36,30a3.006,3.006,0,0,0-2.829,2H37V30Z"></path><path d="M28,30H27v2h3.829A3.006,3.006,0,0,0,28,30Z"></path><rect x="21" y="34" width="22" height="4"></rect><path d="M60,32A12.01,12.01,0,0,1,48,44H44V40a1,1,0,0,0,1-1V33a1,1,0,0,0-1-1H39V29a1,1,0,0,0-1-1H36a4.994,4.994,0,0,0-4,2.03A4.994,4.994,0,0,0,28,28H26a1,1,0,0,0-1,1v3H20a1,1,0,0,0-1,1v6a1,1,0,0,0,1,1v4H13a9,9,0,0,1-2.6-17.62.987.987,0,0,0,.71-.82A11.007,11.007,0,0,1,22,16c.15,0,.3.01.45.02l.21.01a1.017,1.017,0,0,0,.95-.53,13.985,13.985,0,0,1,26.15,3.98.994.994,0,0,0,.77.79A12.053,12.053,0,0,1,60,32Z"></path><rect x="29" y="40" width="6" height="14"></rect><rect x="22" y="40" width="5" height="14"></rect><rect x="37" y="40" width="5" height="14"></rect></g></svg>